<?xml version="1.0" encoding="UTF-8"?>
<svg id="_レイヤー_1" xmlns="http://www.w3.org/2000/svg" version="1.1" viewBox="0 0 512 512">
  <!-- Generator: Adobe Illustrator 30.1.0, SVG Export Plug-In . SVG Version: 2.1.1 Build 136)  -->
  <defs>
    <style>
      .st0 {
        fill: #fff;
      }
    </style>
  </defs>
  <path class="st0" d="M256,9c33.4,0,65.7,6.5,96.1,19.4,29.4,12.4,55.8,30.2,78.5,52.9,22.7,22.7,40.5,49.1,52.9,78.5,11,26,17.4,53.4,19,81.7L112.7,54.8c14.7-10.5,30.4-19.3,47.2-26.4,30.4-12.9,62.8-19.4,96.1-19.4M87.4,75.4v361.1c-2.1-1.9-4.1-3.9-6.1-5.9-22.7-22.7-40.5-49.1-52.9-78.5-12.9-30.5-19.4-62.8-19.4-96.1s6.5-65.7,19.4-96.1c12.4-29.4,30.2-55.8,52.9-78.5,2-2,4-4,6.1-5.9M502.6,270.5c-1.6,28.2-8,55.6-19,81.6-12.4,29.4-30.2,55.8-52.9,78.5-22.7,22.7-49.1,40.5-78.5,52.9-30.5,12.9-62.8,19.4-96.1,19.4s-65.7-6.5-96.1-19.4c-16.8-7.1-32.5-15.9-47.2-26.4l389.9-186.7M256,0C114.6,0,0,114.6,0,256s114.6,256,256,256,256-114.6,256-256L96.4,455V57l415.6,199C512,114.6,397.4,0,256,0h0Z"/>
</svg>